<svg xmlns="http://www.w3.org/2000/svg" viewBox="0 0 4169 2611" role="img" aria-label="OpenQR">
  <g transform="translate(1334.5,0) scale(6.25)">
  <g fill="none" stroke="#07B1B0" stroke-width="20" stroke-linecap="round" stroke-linejoin="round">
    <path d="M24,86 L24,58 Q24,24 58,24 L86,24"/>
    <path d="M154,24 L182,24 Q216,24 216,58 L216,86"/>
    <path d="M216,154 L216,182 Q216,216 182,216 L154,216"/>
    <path d="M86,216 L58,216 Q24,216 24,182 L24,154"/>
  </g>
  <g fill="#FFFFFF">
    <rect x="69" y="69" width="36" height="36" rx="5" fill="none" stroke="#FFFFFF" stroke-width="10"/>
    <rect x="79" y="79" width="16" height="16" rx="2.5"/>
    <rect x="135" y="69" width="36" height="36" rx="5" fill="none" stroke="#FFFFFF" stroke-width="10"/>
    <rect x="145" y="79" width="16" height="16" rx="2.5"/>
    <rect x="69" y="135" width="36" height="36" rx="5" fill="none" stroke="#FFFFFF" stroke-width="10"/>
    <rect x="79" y="145" width="16" height="16" rx="2.5"/>
    <rect x="130" y="130" width="16" height="16" rx="2.5"/>
    <rect x="160" y="130" width="16" height="16" rx="2.5"/>
    <rect x="145" y="145" width="16" height="16" rx="2.5"/>
    <rect x="130" y="160" width="16" height="16" rx="2.5"/>
    <rect x="160" y="160" width="16" height="16" rx="2.5"/>
  </g>
  </g>
  <g transform="translate(0,2401) scale(1,-1)">
    <path fill="#FFFFFF" d="M35 351Q35 453 83.0 534.5Q131 616 213.0 662.0Q295 708 393 708Q492 708 573.5 662.0Q655 616 702.5 534.5Q750 453 750 351Q750 248 702.5 166.5Q655 85 573.0 39.0Q491 -7 393 -7Q295 -7 213.0 39.0Q131 85 83.0 166.5Q35 248 35 351ZM606 351Q606 421 579.0 473.5Q552 526 504.0 554.0Q456 582 393 582Q330 582 281.5 554.0Q233 526 206.0 473.5Q179 421 179 351Q179 281 206.0 228.0Q233 175 281.5 146.5Q330 118 393 118Q456 118 504.0 146.5Q552 175 579.0 228.0Q606 281 606 351ZM1177 563Q1248 563 1305.5 528.0Q1363 493 1396.5 428.5Q1430 364 1430 279Q1430 194 1396.5 128.5Q1363 63 1305.5 27.0Q1248 -9 1177 -9Q1116 -9 1069.5 16.0Q1023 41 994 79V-264H854V554H994V474Q1021 512 1068.5 537.5Q1116 563 1177 563ZM1140 440Q1102 440 1068.5 420.5Q1035 401 1014.5 364.0Q994 327 994 277Q994 227 1014.5 190.0Q1035 153 1068.5 133.5Q1102 114 1140 114Q1179 114 1212.5 134.0Q1246 154 1266.5 191.0Q1287 228 1287 279Q1287 329 1266.5 365.5Q1246 402 1212.5 421.0Q1179 440 1140 440ZM2043 235H1638Q1643 175 1680.0 141.0Q1717 107 1771 107Q1849 107 1882 174H2033Q2009 94 1941.0 42.5Q1873 -9 1774 -9Q1694 -9 1630.5 26.5Q1567 62 1531.5 127.0Q1496 192 1496 277Q1496 363 1531.0 428.0Q1566 493 1629.0 528.0Q1692 563 1774 563Q1853 563 1915.5 529.0Q1978 495 2012.5 432.5Q2047 370 2047 289Q2047 259 2043 235ZM1902 329Q1901 383 1863.0 415.5Q1825 448 1770 448Q1718 448 1682.5 416.5Q1647 385 1639 329ZM2677 325V0H2537V306Q2537 372 2504.0 407.5Q2471 443 2414 443Q2356 443 2322.5 407.5Q2289 372 2289 306V0H2149V554H2289V485Q2317 521 2360.5 541.5Q2404 562 2456 562Q2555 562 2616.0 499.5Q2677 437 2677 325Z"/>
    <path fill="#07B1B0" d="M3330 -123 3224 4Q3180 -7 3134 -7Q3036 -7 2954.0 39.0Q2872 85 2824.0 166.5Q2776 248 2776 351Q2776 453 2824.0 534.5Q2872 616 2954.0 662.0Q3036 708 3134 708Q3233 708 3314.5 662.0Q3396 616 3443.5 534.5Q3491 453 3491 351Q3491 258 3451.5 181.5Q3412 105 3344 57L3504 -123ZM3134 118Q3197 118 3245.0 146.5Q3293 175 3320.0 228.0Q3347 281 3347 351Q3347 421 3320.0 473.5Q3293 526 3245.0 554.0Q3197 582 3134 582Q3071 582 3022.5 554.0Q2974 526 2947.0 473.5Q2920 421 2920 351Q2920 281 2947.0 228.0Q2974 175 3022.5 146.5Q3071 118 3134 118ZM3957 0 3803 272H3737V0H3597V698H3859Q3940 698 3997.0 669.5Q4054 641 4082.5 592.5Q4111 544 4111 484Q4111 415 4071.0 359.5Q4031 304 3952 283L4119 0ZM3737 377H3854Q3911 377 3939.0 404.5Q3967 432 3967 481Q3967 529 3939.0 555.5Q3911 582 3854 582H3737Z"/>
  </g>
</svg>
