<svg xmlns="http://www.w3.org/2000/svg" viewBox="0 0 240 240" role="img" aria-label="OpenQR icon">
  
  <g fill="none" stroke="#07B1B0" stroke-width="20" stroke-linecap="round" stroke-linejoin="round">
    <path d="M24,86 L24,58 Q24,24 58,24 L86,24"/>
    <path d="M154,24 L182,24 Q216,24 216,58 L216,86"/>
    <path d="M216,154 L216,182 Q216,216 182,216 L154,216"/>
    <path d="M86,216 L58,216 Q24,216 24,182 L24,154"/>
  </g>
  <g fill="#232E3A">
    <rect x="69" y="69" width="36" height="36" rx="5" fill="none" stroke="#232E3A" stroke-width="10"/>
    <rect x="79" y="79" width="16" height="16" rx="2.5"/>
    <rect x="135" y="69" width="36" height="36" rx="5" fill="none" stroke="#232E3A" stroke-width="10"/>
    <rect x="145" y="79" width="16" height="16" rx="2.5"/>
    <rect x="69" y="135" width="36" height="36" rx="5" fill="none" stroke="#232E3A" stroke-width="10"/>
    <rect x="79" y="145" width="16" height="16" rx="2.5"/>
    <rect x="130" y="130" width="16" height="16" rx="2.5"/>
    <rect x="160" y="130" width="16" height="16" rx="2.5"/>
    <rect x="145" y="145" width="16" height="16" rx="2.5"/>
    <rect x="130" y="160" width="16" height="16" rx="2.5"/>
    <rect x="160" y="160" width="16" height="16" rx="2.5"/>
  </g>
</svg>
